<svg width="21" height="21" viewBox="0 0 21 21" fill="none" xmlns="http://www.w3.org/2000/svg">
<mask id="mask0_154_283" style="mask-type:luminance" maskUnits="userSpaceOnUse" x="0" y="0" width="21" height="21">
<path d="M20.8292 0.830597H0.926758V20.733H20.8292V0.830597Z" fill="white"/>
</mask>
<g mask="url(#mask0_154_283)">
<path d="M5.05651 3.73218C5.05651 4.87744 4.13603 5.80539 2.99997 5.80539C1.86379 5.80539 0.943302 4.87744 0.943302 3.73218C0.943302 2.58779 1.86379 1.65909 2.99997 1.65909C4.13603 1.65909 5.05651 2.58779 5.05651 3.73218ZM5.07306 7.46388H0.926758V20.7322H5.07306V7.46388ZM11.6924 7.46388H7.57255V20.7322H11.6931V13.7672C11.6931 9.89447 16.6928 9.57777 16.6928 13.7672V20.7322H20.8292V12.3309C20.8292 5.79631 13.4305 6.03427 11.6924 9.251V7.46388Z" fill="white"/>
</g>
</svg>
