<svg width="26" height="18" viewBox="0 0 26 18" fill="none" xmlns="http://www.w3.org/2000/svg">
<path d="M10.5123 12.6098L16.9681 8.87806L10.5123 5.14636V12.6098ZM24.8918 2.87001C25.0535 3.45465 25.1654 4.23831 25.2401 5.23343C25.3271 6.22855 25.3645 7.08684 25.3645 7.83318L25.4391 8.87806C25.4391 11.6022 25.2401 13.6049 24.8918 14.8861C24.5808 16.0056 23.8593 16.7271 22.7398 17.0381C22.1552 17.1998 21.0854 17.3117 19.4435 17.3864C17.8264 17.4734 16.3462 17.5107 14.9779 17.5107L13.0001 17.5854C7.78811 17.5854 4.54152 17.3864 3.2603 17.0381C2.14079 16.7271 1.41933 16.0056 1.10835 14.8861C0.946644 14.3015 0.834693 13.5178 0.760059 12.5227C0.672986 11.5276 0.63567 10.6693 0.63567 9.92294L0.561035 8.87806C0.561035 6.15392 0.760059 4.15123 1.10835 2.87001C1.41933 1.7505 2.14079 1.02904 3.2603 0.718062C3.84494 0.556355 4.91469 0.444404 6.55664 0.36977C8.17372 0.282697 9.65396 0.245381 11.0223 0.245381L13.0001 0.170746C18.212 0.170746 21.4586 0.36977 22.7398 0.718062C23.8593 1.02904 24.5808 1.7505 24.8918 2.87001Z" fill="white"/>
</svg>
