<svg xmlns="http://www.w3.org/2000/svg" xml:space="preserve" width="2000" height="316" data-id="lg_cPSqO8NrpHXRCVHo6b" data-version="1" viewBox="0 0 2000 316"><g data-padding="20"><g transform="translate(10 9.605)scale(.93921)"><path d="M1075.013 9.086a28.875 28.875 0 0 1 49.652 16.077 28.835 28.835 0 0 0 33.93 24.648 28.875 28.875 0 0 1 30.652 42.225c-7.9 14.536-1.975 32.785 12.956 39.895a28.875 28.875 0 0 1 0 52.14 28.835 28.835 0 0 0-12.956 39.895 28.875 28.875 0 0 1-30.652 42.225 28.835 28.835 0 0 0-33.93 24.648 28.875 28.875 0 0 1-49.612 16.116 28.835 28.835 0 0 0-41.95 0 28.875 28.875 0 0 1-49.611-16.116 28.835 28.835 0 0 0-33.931-24.648 28.875 28.875 0 0 1-30.652-42.225c7.9-14.536 1.975-32.785-12.956-39.895a28.875 28.875 0 0 1 0-52.14 28.835 28.835 0 0 0 12.956-39.895 28.875 28.875 0 0 1 30.652-42.225 28.835 28.835 0 0 0 33.93-24.649 28.875 28.875 0 0 1 49.613-16.116 28.835 28.835 0 0 0 41.949 0"/><rect width="290" height="28.25" x="522.418" y="-198.534" fill="none" rx="0" ry="0" transform="translate(387.65 413.52)"/><path fill="#fff" d="M962.328 228.691v.23q-.03 1.02-.22 2.12t-.53 2.2-.82 2.17q-.47 1.08-1.07 2.06-.59.98-1.27 1.84t-1.44 1.52l-1.82-1.05q.43-.72.78-1.57.34-.85.62-1.77.28-.93.49-1.91.2-.97.33-1.94.14-.96.2-1.9.07-.93.07-1.77 0-.66-.01-1.5 0-.83-.09-1.7-.1-.87-.3-1.69-.21-.83-.62-1.47-.41-.65-1.05-1.04t-1.59-.39q-.84 0-1.45.29-.6.28-1.02.77-.42.48-.68 1.11-.25.64-.39 1.34t-.18 1.41q-.04.72-.04 1.35v3.41h5.26v2.01h-5.26v4.28h-4.85v-8.94q0-1.92.61-3.56.61-1.65 1.73-2.87 1.12-1.21 2.69-1.9 1.56-.69 3.49-.69 1.31 0 2.45.37t2.08 1.03q.94.65 1.68 1.55.74.89 1.23 1.96.5 1.06.75 2.24.26 1.19.24 2.4m11.37.73v7.67h-4.85v-17.58h12.62v2.24h-7.77v5.44h6v2.23Zm18.52 1.1v6.57h-4.85v-17.58h8.65q1.22 0 2.35.28 1.14.29 2.01.91.87.61 1.39 1.59t.52 2.37q0 1.09-.46 2.04-.45.96-1.22 1.71-.76.75-1.75 1.25-.99.49-2.05.65.48.81.99 1.53.52.72 1.05 1.35.54.62 1.06 1.16.53.53 1 .97 1.12 1.02 2.22 1.77h-6.04q-.73-.7-1.39-1.68-.56-.83-1.13-2.05-.57-1.23-.87-2.84Zm5.15-5.86q0-1.77-.86-2.6t-2.58-.83h-1.71v7.63h1.71q.91 0 1.57-.35.65-.35 1.07-.93.41-.58.61-1.33.19-.76.19-1.59m16.27-5.15v17.58h-4.85v-17.58Zm15.3 7.66v2.25h-8.21v-2.25Zm11.92 3.35v6.57h-4.85v-17.58h8.64q1.23 0 2.36.28 1.14.29 2.01.91.87.61 1.39 1.59t.52 2.37q0 1.09-.46 2.04-.46.96-1.22 1.71t-1.75 1.25q-.99.49-2.05.65.47.81.99 1.53t1.05 1.35q.53.62 1.06 1.16.52.53 1 .97 1.12 1.02 2.22 1.77h-6.04q-.73-.7-1.39-1.68-.56-.83-1.13-2.05-.57-1.23-.87-2.84Zm5.15-5.86q0-1.77-.86-2.6t-2.58-.83h-1.71v7.63h1.71q.91 0 1.57-.35.65-.35 1.06-.93.42-.58.61-1.33.2-.76.2-1.59m28.15 4.03v.23q-.02 1.02-.21 2.12t-.53 2.2-.82 2.17q-.47 1.08-1.07 2.06-.59.98-1.27 1.84t-1.44 1.52l-1.82-1.05q.43-.72.77-1.57.35-.85.63-1.77.28-.93.49-1.91.2-.97.33-1.94.14-.96.2-1.9.07-.93.07-1.77 0-.66-.01-1.5 0-.83-.09-1.7-.1-.87-.3-1.69-.21-.83-.62-1.47-.41-.65-1.05-1.04t-1.59-.39q-.84 0-1.45.29-.6.28-1.02.77-.43.48-.68 1.11-.25.64-.39 1.34t-.18 1.41q-.04.72-.04 1.35v3.41h5.26v2.01h-5.26v4.28h-4.85v-8.94q0-1.92.61-3.56.61-1.65 1.73-2.87 1.12-1.21 2.68-1.9 1.57-.69 3.5-.69 1.31 0 2.45.37t2.08 1.03q.94.65 1.68 1.55.74.89 1.23 1.96.5 1.06.75 2.24.26 1.19.23 2.4m23.27 0v.23q-.03 1.02-.22 2.12t-.53 2.2-.82 2.17q-.47 1.08-1.07 2.06-.59.98-1.27 1.84t-1.44 1.52l-1.82-1.05q.43-.72.77-1.57.35-.85.63-1.77.28-.93.49-1.91.2-.97.33-1.94.14-.96.2-1.9.07-.93.07-1.77 0-.66-.01-1.5 0-.83-.09-1.7-.1-.87-.3-1.69-.21-.83-.62-1.47-.41-.65-1.05-1.04t-1.59-.39q-.84 0-1.45.29-.6.28-1.02.77-.43.48-.68 1.11-.25.64-.39 1.34t-.18 1.41q-.04.72-.04 1.35v3.41h5.26v2.01h-5.26v4.28h-4.85v-8.94q0-1.92.61-3.56.61-1.65 1.73-2.87 1.12-1.21 2.68-1.9 1.57-.69 3.5-.69 1.31 0 2.45.37t2.08 1.03q.94.65 1.68 1.55.74.89 1.23 1.96.5 1.06.75 2.24.26 1.19.24 2.4m20.92 3.02q0 1.14-.28 2.01-.29.86-.81 1.5-.52.63-1.23 1.06-.7.43-1.54.68-.84.26-1.77.37t-1.9.11q-1.27 0-2.34-.19-1.08-.19-2.02-.6-.95-.41-1.82-1.05-.87-.65-1.74-1.58l2.49-2.52q.34.84.94 1.55.6.72 1.31 1.23.72.51 1.49.8.76.3 1.45.3.8 0 1.51-.12.71-.11 1.23-.38.53-.27.83-.72.3-.44.3-1.11 0-.52-.23-.88-.24-.37-.61-.63t-.85-.45q-.47-.18-.97-.31-.49-.13-.97-.23-.47-.1-.84-.21-.72-.21-1.5-.45t-1.54-.54q-.76-.31-1.43-.71-.68-.39-1.19-.94-.52-.54-.82-1.25-.31-.72-.31-1.64 0-1.12.28-1.98.27-.86.77-1.49.5-.64 1.19-1.07.68-.43 1.5-.69.82-.27 1.74-.38.92-.12 1.88-.12 1.32 0 2.4.24 1.08.25 2 .7.91.45 1.68 1.08.76.63 1.43 1.4l-2.49 2.53q-.29-.88-.81-1.59t-1.15-1.22q-.64-.5-1.34-.78-.69-.27-1.34-.27-.84 0-1.55.11-.71.12-1.21.38-.51.26-.79.71t-.28 1.11q0 .52.21.89.2.36.55.62t.79.42.91.29q.47.12.93.21.45.09.83.2.73.21 1.54.44t1.59.54q.78.32 1.49.72.7.4 1.24.96.54.55.86 1.28.31.73.31 1.66m11.24-2.29v7.67h-4.85v-17.58h4.85v7.68h6.42v-7.68h4.85v17.58h-4.85v-7.67Zm23.47-9.91v17.58h-4.85v-17.58Zm12.21 0v17.58h-4.85v-17.58ZM1106.684 72.39c-.623-2.42-3.56-4.183-6.996-4.183h-90.78c-3.417 0-6.372 1.78-6.995 4.183l-6.23 23.941c-.82 3.15 2.545 6.07 6.995 6.07h103.24c4.45 0 7.814-2.92 6.996-6.07Zm-104.842 35.388a10.484 10.484 0 0 0 20.968 0Zm20.968 0a10.484 10.484 0 0 0 20.968 0Zm20.986 0a10.484 10.484 0 0 0 20.969 0Z"/><path fill="#fff" d="M1075.32 118.224a10.5 10.5 0 0 0 10.484-10.484h-21.04a10.5 10.5 0 0 0 10.556 10.484"/><path fill="#fff" d="M1085.733 107.777a10.484 10.484 0 0 0 20.968 0Zm17.515 15.538a2.67 2.67 0 0 0-2.67 2.67v59.594h-8.01v-46.386a5.34 5.34 0 0 0-5.34-5.34h-19.58a5.34 5.34 0 0 0-5.34 5.34v46.386h-54.343v-59.594a2.67 2.67 0 1 0-5.34 0v62.3a2.67 2.67 0 0 0 2.67 2.67h97.9a2.67 2.67 0 0 0 2.67-2.67v-62.3a2.67 2.67 0 0 0-2.617-2.67m-16.02 62.3h-19.58v-46.422h19.58Z"/><path fill="#fff" d="M1049.67 133.853h-27.162a5.34 5.34 0 0 0-5.34 5.34v27.145a5.34 5.34 0 0 0 5.34 5.34h27.163a5.34 5.34 0 0 0 5.34-5.34v-27.145a5.34 5.34 0 0 0-5.34-5.34m0 32.485h-27.163v-27.145h27.163Z"/></g><path fill="transparent" stroke="transparent" d="M835.5 0h329v316h-329z"/></g></svg>